<svg width="281" height="197" viewBox="0 0 281 197" fill="none" xmlns="http://www.w3.org/2000/svg">
<path d="M91.4 169.8C90.3333 169.8 89.4667 169.6 88.8 169.2C88.1333 168.933 87.8667 168.267 88 167.2C88 166.8 88.2 166.2 88.6 165.4C89 164.6 89.2667 164 89.4 163.6C90.0667 161.733 90.6667 159.867 91.2 158C91.7333 156 92.2667 154.133 92.8 152.4C94.6667 145.067 96.4 137.8 98 130.6C99.6 123.267 100.867 115.933 101.8 108.6C102.333 104.333 103 98.6 103.8 91.4C104.6 84.0667 105 77 105 70.2C105 67.5333 104.933 65.0667 104.8 62.8C104.667 60.4 104.333 58.2667 103.8 56.4C99.4 56.4 95 56.4 90.6 56.4C86.2 56.2667 81.8667 56.2 77.6 56.2C75.6 56.2 72.8 56.3333 69.2 56.6C65.7333 56.8667 62.1333 57.4667 58.4 58.4C54.8 59.3333 51.8 60.8667 49.4 63C47 65.1333 45.9333 68 46.2 71.6C46.3333 72.6667 46.7333 74.1333 47.4 76C48.0667 77.7333 48.5333 78.8 48.8 79.2L46.6 80.8C45.8 79.3333 44.8 77.6667 43.6 75.8C42.4 73.8 41.3333 71.8667 40.4 70C39.4667 68.1333 38.9333 66.7333 38.8 65.8C38.6667 64.4667 38.7333 62.7333 39 60.6C39.2667 58.4667 40.3333 56.6 42.2 55C44.2 53.2667 46.9333 52.1333 50.4 51.6C54 51.0667 57.6667 50.8 61.4 50.8C65 50.8 68.4667 50.9333 71.8 51.2C75.1333 51.4667 77.8667 51.6 80 51.6C80 51.6 81.5333 51.6 84.6 51.6C87.6667 51.6 91.5333 51.6 96.2 51.6C101 51.4667 106.067 51.4 111.4 51.4C116.733 51.4 121.6 51.4 126 51.4L121.8 56.6H107.8C109.8 60.3333 111.067 65.5333 111.6 72.2C112.267 78.8667 112.6 85.2667 112.6 91.4C112.6 93.9333 112.6 96.3333 112.6 98.6C112.6 100.867 112.533 102.867 112.4 104.6C112.133 110.867 111.267 118.4 109.8 127.2C108.333 136 106.467 144.333 104.2 152.2C109.667 144.467 116.333 135.267 124.2 124.6C132.2 113.933 141.333 102.867 151.6 91.4C162 79.8 173.467 68.8 186 58.4C188.533 56.2667 191.867 53.8667 196 51.2C200.133 48.5333 204.533 46.2667 209.2 44.4C213.867 42.4 218.267 41.4 222.4 41.4C226.267 41.4 228.933 42.0667 230.4 43.4C232 44.7333 232.8 46.4667 232.8 48.6C232.8 51.1333 232 53.9333 230.4 57C228.933 60.0667 227.8 62.6 227 64.6C226.867 65 226.267 65.2667 225.2 65.4C224.133 65.5333 223.667 65.3333 223.8 64.8C224.067 63.7333 224.333 62.4667 224.6 61C225 59.4 225.2 57.8 225.2 56.2C225.2 54.0667 224.8 52.1333 224 50.4C223.2 48.6667 221.667 47.6667 219.4 47.4C219 47.2667 218.6 47.2 218.2 47.2C217.8 47.2 217.4 47.2 217 47.2C213.133 47.2 208.933 48.5333 204.4 51.2C200 53.7333 194.867 57.3333 189 62C177.8 70.9333 167.133 80.8 157 91.6C147 102.267 137.4 113.467 128.2 125.2C123.4 131.2 118.733 137.267 114.2 143.4C109.667 149.533 105.467 155.933 101.6 162.6C101.333 163.133 101.067 163.733 100.8 164.4C100.667 165.2 100.467 165.8 100.2 166.2C99.9333 166.467 99.1333 166.867 97.8 167.4C96.4667 168.067 95.1333 168.6 93.8 169C92.6 169.533 91.8 169.8 91.4 169.8Z" fill="white"/>
<mask id="mask0_9_66" style="mask-type:alpha" maskUnits="userSpaceOnUse" x="0" y="17" width="231" height="180">
<rect x="21.6395" y="81.5804" width="194" height="48" transform="rotate(0.763373 21.6395 81.5804)" fill="#D9D9D9"/>
<rect x="36.6395" y="17" width="194" height="48" transform="rotate(0.763373 36.6395 17)" fill="#D9D9D9"/>
<rect x="0.639496" y="146.161" width="194" height="48" transform="rotate(0.763373 0.639496 146.161)" fill="#D9D9D9"/>
</mask>
<g mask="url(#mask0_9_66)">
<g filter="url(#filter0_i_9_66)">
<path d="M102.281 171C95.6146 171 88.9479 170.417 82.2813 169.25C75.6146 168.25 69.5313 166.333 64.0313 163.5C58.6979 160.667 54.3646 156.667 51.0313 151.5C47.6979 146.333 46.0313 139.667 46.0313 131.5C46.0313 124.667 47.3646 116.833 50.0313 108C52.8646 99 57.0313 90 62.5313 81C68.0313 71.8333 74.8646 63.3333 83.0313 55.5C91.3646 47.6667 100.948 41.4167 111.781 36.75C122.781 31.9167 135.115 29.5 148.781 29.5C168.781 29.5 183.365 32.75 192.531 39.25C201.698 45.5833 206.281 55.5 206.281 69C206.281 82.1667 203.531 94.8333 198.031 107C192.698 119.167 185.198 130.083 175.531 139.75C166.031 149.417 155.031 157.083 142.531 162.75C130.031 168.25 116.615 171 102.281 171ZM100.281 167.25C110.448 167.25 120.115 165.333 129.281 161.5C138.615 157.5 147.031 152.167 154.531 145.5C162.198 138.667 168.781 130.917 174.281 122.25C179.948 113.583 184.281 104.5 187.281 95C190.448 85.5 192.031 76.0833 192.031 66.75C192.031 56.4167 188.781 48.25 182.281 42.25C175.781 36.25 164.781 33.25 149.281 33.25C140.448 33.25 131.615 35.5 122.781 40C114.115 44.3333 105.948 50.1667 98.2813 57.5C90.7813 64.8333 84.0313 72.9167 78.0313 81.75C72.1979 90.5833 67.6146 99.5 64.2813 108.5C60.9479 117.5 59.2813 125.917 59.2813 133.75C59.2813 144.25 62.3646 152.5 68.5313 158.5C74.8646 164.333 85.4479 167.25 100.281 167.25Z" fill="white"/>
</g>
</g>
<defs>
<filter id="filter0_i_9_66" x="46.0312" y="29.5" width="160.25" height="145.5" filterUnits="userSpaceOnUse" color-interpolation-filters="sRGB">
<feFlood flood-opacity="0" result="BackgroundImageFix"/>
<feBlend mode="normal" in="SourceGraphic" in2="BackgroundImageFix" result="shape"/>
<feColorMatrix in="SourceAlpha" type="matrix" values="0 0 0 0 0 0 0 0 0 0 0 0 0 0 0 0 0 0 127 0" result="hardAlpha"/>
<feOffset dy="4"/>
<feGaussianBlur stdDeviation="2"/>
<feComposite in2="hardAlpha" operator="arithmetic" k2="-1" k3="1"/>
<feColorMatrix type="matrix" values="0 0 0 0 0 0 0 0 0 0 0 0 0 0 0 0 0 0 0.25 0"/>
<feBlend mode="normal" in2="shape" result="effect1_innerShadow_9_66"/>
</filter>
</defs>
</svg>
