<svg width="266" height="196" viewBox="0 0 266 196" fill="none" xmlns="http://www.w3.org/2000/svg">
<mask id="mask0_6_35" style="mask-type:alpha" maskUnits="userSpaceOnUse" x="0" y="16" width="231" height="180">
<rect x="21.6395" y="80.5804" width="194" height="48" transform="rotate(0.763373 21.6395 80.5804)" fill="#B7B7B7"/>
<rect x="36.6395" y="16" width="194" height="48" transform="rotate(0.763373 36.6395 16)" fill="#B7B7B7"/>
<rect x="0.639496" y="145.161" width="194" height="48" transform="rotate(0.763373 0.639496 145.161)" fill="#B7B7B7"/>
</mask>
<g mask="url(#mask0_6_35)">
<g filter="url(#filter0_d_6_35)">
<path d="M91.2813 175C84.6146 175 77.9479 174.417 71.2813 173.25C64.6146 172.25 58.5313 170.333 53.0313 167.5C47.6979 164.667 43.3646 160.667 40.0313 155.5C36.6979 150.333 35.0313 143.667 35.0313 135.5C35.0313 128.667 36.3646 120.833 39.0313 112C41.8646 103 46.0313 94 51.5313 85C57.0313 75.8333 63.8646 67.3333 72.0313 59.5C80.3646 51.6667 89.9479 45.4167 100.781 40.75C111.781 35.9167 124.115 33.5 137.781 33.5C157.781 33.5 172.365 36.75 181.531 43.25C190.698 49.5833 195.281 59.5 195.281 73C195.281 86.1667 192.531 98.8333 187.031 111C181.698 123.167 174.198 134.083 164.531 143.75C155.031 153.417 144.031 161.083 131.531 166.75C119.031 172.25 105.615 175 91.2813 175ZM89.2813 171.25C99.4479 171.25 109.115 169.333 118.281 165.5C127.615 161.5 136.031 156.167 143.531 149.5C151.198 142.667 157.781 134.917 163.281 126.25C168.948 117.583 173.281 108.5 176.281 99C179.448 89.5 181.031 80.0833 181.031 70.75C181.031 60.4167 177.781 52.25 171.281 46.25C164.781 40.25 153.781 37.25 138.281 37.25C129.448 37.25 120.615 39.5 111.781 44C103.115 48.3333 94.9479 54.1667 87.2813 61.5C79.7813 68.8333 73.0313 76.9167 67.0313 85.75C61.1979 94.5833 56.6146 103.5 53.2813 112.5C49.9479 121.5 48.2813 129.917 48.2813 137.75C48.2813 148.25 51.3646 156.5 57.5313 162.5C63.8646 168.333 74.4479 171.25 89.2813 171.25Z" fill="white"/>
</g>
</g>
<path d="M76.4 169.8C75.3333 169.8 74.4667 169.6 73.8 169.2C73.1333 168.933 72.8667 168.267 73 167.2C73 166.8 73.2 166.2 73.6 165.4C74 164.6 74.2667 164 74.4 163.6C75.0667 161.733 75.6667 159.867 76.2 158C76.7333 156 77.2667 154.133 77.8 152.4C79.6667 145.067 81.4 137.8 83 130.6C84.6 123.267 85.8667 115.933 86.8 108.6C87.3333 104.333 88 98.6 88.8 91.4C89.6 84.0667 90 77 90 70.2C90 67.5333 89.9333 65.0667 89.8 62.8C89.6667 60.4 89.3333 58.2667 88.8 56.4C84.4 56.4 80 56.4 75.6 56.4C71.2 56.2667 66.8667 56.2 62.6 56.2C60.6 56.2 57.8 56.3333 54.2 56.6C50.7333 56.8667 47.1333 57.4667 43.4 58.4C39.8 59.3333 36.8 60.8667 34.4 63C32 65.1333 30.9333 68 31.2 71.6C31.3333 72.6667 31.7333 74.1333 32.4 76C33.0667 77.7333 33.5333 78.8 33.8 79.2L31.6 80.8C30.8 79.3333 29.8 77.6667 28.6 75.8C27.4 73.8 26.3333 71.8667 25.4 70C24.4667 68.1333 23.9333 66.7333 23.8 65.8C23.6667 64.4667 23.7333 62.7333 24 60.6C24.2667 58.4667 25.3333 56.6 27.2 55C29.2 53.2667 31.9333 52.1333 35.4 51.6C39 51.0667 42.6667 50.8 46.4 50.8C50 50.8 53.4667 50.9333 56.8 51.2C60.1333 51.4667 62.8667 51.6 65 51.6C65 51.6 66.5333 51.6 69.6 51.6C72.6667 51.6 76.5333 51.6 81.2 51.6C86 51.4667 91.0667 51.4 96.4 51.4C101.733 51.4 106.6 51.4 111 51.4L106.8 56.6H92.8C94.8 60.3333 96.0667 65.5333 96.6 72.2C97.2667 78.8667 97.6 85.2667 97.6 91.4C97.6 93.9333 97.6 96.3333 97.6 98.6C97.6 100.867 97.5333 102.867 97.4 104.6C97.1333 110.867 96.2667 118.4 94.8 127.2C93.3333 136 91.4667 144.333 89.2 152.2C94.6667 144.467 101.333 135.267 109.2 124.6C117.2 113.933 126.333 102.867 136.6 91.4C147 79.8 158.467 68.8 171 58.4C173.533 56.2667 176.867 53.8667 181 51.2C185.133 48.5333 189.533 46.2667 194.2 44.4C198.867 42.4 203.267 41.4 207.4 41.4C211.267 41.4 213.933 42.0667 215.4 43.4C217 44.7333 217.8 46.4667 217.8 48.6C217.8 51.1333 217 53.9333 215.4 57C213.933 60.0667 212.8 62.6 212 64.6C211.867 65 211.267 65.2667 210.2 65.4C209.133 65.5333 208.667 65.3333 208.8 64.8C209.067 63.7333 209.333 62.4667 209.6 61C210 59.4 210.2 57.8 210.2 56.2C210.2 54.0667 209.8 52.1333 209 50.4C208.2 48.6667 206.667 47.6667 204.4 47.4C204 47.2667 203.6 47.2 203.2 47.2C202.8 47.2 202.4 47.2 202 47.2C198.133 47.2 193.933 48.5333 189.4 51.2C185 53.7333 179.867 57.3333 174 62C162.8 70.9333 152.133 80.8 142 91.6C132 102.267 122.4 113.467 113.2 125.2C108.4 131.2 103.733 137.267 99.2 143.4C94.6667 149.533 90.4667 155.933 86.6 162.6C86.3333 163.133 86.0667 163.733 85.8 164.4C85.6667 165.2 85.4667 165.8 85.2 166.2C84.9333 166.467 84.1333 166.867 82.8 167.4C81.4667 168.067 80.1333 168.6 78.8 169C77.6 169.533 76.8 169.8 76.4 169.8Z" fill="white"/>
<defs>
<filter id="filter0_d_6_35" x="31.0312" y="33.5" width="168.25" height="149.5" filterUnits="userSpaceOnUse" color-interpolation-filters="sRGB">
<feFlood flood-opacity="0" result="BackgroundImageFix"/>
<feColorMatrix in="SourceAlpha" type="matrix" values="0 0 0 0 0 0 0 0 0 0 0 0 0 0 0 0 0 0 127 0" result="hardAlpha"/>
<feOffset dy="4"/>
<feGaussianBlur stdDeviation="2"/>
<feComposite in2="hardAlpha" operator="out"/>
<feColorMatrix type="matrix" values="0 0 0 0 0 0 0 0 0 0 0 0 0 0 0 0 0 0 0.25 0"/>
<feBlend mode="normal" in2="BackgroundImageFix" result="effect1_dropShadow_6_35"/>
<feBlend mode="normal" in="SourceGraphic" in2="effect1_dropShadow_6_35" result="shape"/>
</filter>
</defs>
</svg>
