<svg width="271" height="198" viewBox="0 0 271 198" fill="none" xmlns="http://www.w3.org/2000/svg">
<path d="M81.0395 169.8C79.9728 169.8 79.1062 169.6 78.4395 169.2C77.7728 168.933 77.5062 168.267 77.6395 167.2C77.6395 166.8 77.8395 166.2 78.2395 165.4C78.6395 164.6 78.9062 164 79.0395 163.6C79.7062 161.733 80.3062 159.867 80.8395 158C81.3728 156 81.9062 154.133 82.4395 152.4C84.3062 145.067 86.0395 137.8 87.6395 130.6C89.2395 123.267 90.5062 115.933 91.4395 108.6C91.9728 104.333 92.6395 98.6 93.4395 91.4C94.2395 84.0667 94.6395 77 94.6395 70.2C94.6395 67.5333 94.5728 65.0667 94.4395 62.8C94.3062 60.4 93.9728 58.2667 93.4395 56.4C89.0395 56.4 84.6395 56.4 80.2395 56.4C75.8395 56.2667 71.5062 56.2 67.2395 56.2C65.2395 56.2 62.4395 56.3333 58.8395 56.6C55.3728 56.8667 51.7728 57.4667 48.0395 58.4C44.4395 59.3333 41.4395 60.8667 39.0395 63C36.6395 65.1333 35.5728 68 35.8395 71.6C35.9728 72.6667 36.3728 74.1333 37.0395 76C37.7062 77.7333 38.1728 78.8 38.4395 79.2L36.2395 80.8C35.4395 79.3333 34.4395 77.6667 33.2395 75.8C32.0395 73.8 30.9728 71.8667 30.0395 70C29.1062 68.1333 28.5728 66.7333 28.4395 65.8C28.3062 64.4667 28.3728 62.7333 28.6395 60.6C28.9062 58.4667 29.9728 56.6 31.8395 55C33.8395 53.2667 36.5728 52.1333 40.0395 51.6C43.6395 51.0667 47.3062 50.8 51.0395 50.8C54.6395 50.8 58.1062 50.9333 61.4395 51.2C64.7728 51.4667 67.5062 51.6 69.6395 51.6C69.6395 51.6 71.1728 51.6 74.2395 51.6C77.3062 51.6 81.1728 51.6 85.8395 51.6C90.6395 51.4667 95.7062 51.4 101.039 51.4C106.373 51.4 111.24 51.4 115.639 51.4L111.439 56.6H97.4395C99.4395 60.3333 100.706 65.5333 101.24 72.2C101.906 78.8667 102.239 85.2667 102.239 91.4C102.239 93.9333 102.239 96.3333 102.239 98.6C102.239 100.867 102.173 102.867 102.04 104.6C101.773 110.867 100.906 118.4 99.4395 127.2C97.9728 136 96.1062 144.333 93.8395 152.2C99.3062 144.467 105.973 135.267 113.839 124.6C121.84 113.933 130.973 102.867 141.239 91.4C151.639 79.8 163.106 68.8 175.64 58.4C178.173 56.2667 181.506 53.8667 185.639 51.2C189.773 48.5333 194.173 46.2667 198.84 44.4C203.506 42.4 207.906 41.4 212.04 41.4C215.906 41.4 218.573 42.0667 220.04 43.4C221.64 44.7333 222.44 46.4667 222.44 48.6C222.44 51.1333 221.64 53.9333 220.04 57C218.573 60.0667 217.44 62.6 216.64 64.6C216.506 65 215.906 65.2667 214.84 65.4C213.773 65.5333 213.306 65.3333 213.44 64.8C213.706 63.7333 213.973 62.4667 214.239 61C214.64 59.4 214.84 57.8 214.84 56.2C214.84 54.0667 214.44 52.1333 213.64 50.4C212.84 48.6667 211.306 47.6667 209.04 47.4C208.64 47.2667 208.24 47.2 207.84 47.2C207.44 47.2 207.04 47.2 206.64 47.2C202.773 47.2 198.573 48.5333 194.04 51.2C189.64 53.7333 184.506 57.3333 178.64 62C167.44 70.9333 156.773 80.8 146.639 91.6C136.64 102.267 127.04 113.467 117.84 125.2C113.039 131.2 108.373 137.267 103.84 143.4C99.3062 149.533 95.1062 155.933 91.2395 162.6C90.9728 163.133 90.7062 163.733 90.4395 164.4C90.3062 165.2 90.1062 165.8 89.8395 166.2C89.5728 166.467 88.7728 166.867 87.4395 167.4C86.1062 168.067 84.7728 168.6 83.4395 169C82.2395 169.533 81.4395 169.8 81.0395 169.8Z" fill="black"/>
<mask id="mask0_2_12" style="mask-type:alpha" maskUnits="userSpaceOnUse" x="0" y="18" width="231" height="180">
<rect x="21.6395" y="82.5804" width="194" height="48" transform="rotate(0.763373 21.6395 82.5804)" fill="#D9D9D9"/>
<rect x="36.6395" y="18" width="194" height="48" transform="rotate(0.763373 36.6395 18)" fill="#D9D9D9"/>
<rect x="0.639496" y="147.161" width="194" height="48" transform="rotate(0.763373 0.639496 147.161)" fill="#D9D9D9"/>
</mask>
<g mask="url(#mask0_2_12)">
<g filter="url(#filter0_d_2_12)">
<path d="M91.2813 175C84.6146 175 77.9479 174.417 71.2813 173.25C64.6146 172.25 58.5313 170.333 53.0313 167.5C47.6979 164.667 43.3646 160.667 40.0313 155.5C36.6979 150.333 35.0313 143.667 35.0313 135.5C35.0313 128.667 36.3646 120.833 39.0313 112C41.8646 103 46.0313 94 51.5313 85C57.0313 75.8333 63.8646 67.3333 72.0313 59.5C80.3646 51.6667 89.9479 45.4167 100.781 40.75C111.781 35.9167 124.115 33.5 137.781 33.5C157.781 33.5 172.365 36.75 181.531 43.25C190.698 49.5833 195.281 59.5 195.281 73C195.281 86.1667 192.531 98.8333 187.031 111C181.698 123.167 174.198 134.083 164.531 143.75C155.031 153.417 144.031 161.083 131.531 166.75C119.031 172.25 105.615 175 91.2813 175ZM89.2813 171.25C99.4479 171.25 109.115 169.333 118.281 165.5C127.615 161.5 136.031 156.167 143.531 149.5C151.198 142.667 157.781 134.917 163.281 126.25C168.948 117.583 173.281 108.5 176.281 99C179.448 89.5 181.031 80.0833 181.031 70.75C181.031 60.4167 177.781 52.25 171.281 46.25C164.781 40.25 153.781 37.25 138.281 37.25C129.448 37.25 120.615 39.5 111.781 44C103.115 48.3333 94.9479 54.1667 87.2813 61.5C79.7813 68.8333 73.0313 76.9167 67.0313 85.75C61.1979 94.5833 56.6146 103.5 53.2813 112.5C49.9479 121.5 48.2813 129.917 48.2813 137.75C48.2813 148.25 51.3646 156.5 57.5313 162.5C63.8646 168.333 74.4479 171.25 89.2813 171.25Z" fill="black"/>
</g>
</g>
<defs>
<filter id="filter0_d_2_12" x="31.0312" y="33.5" width="168.25" height="149.5" filterUnits="userSpaceOnUse" color-interpolation-filters="sRGB">
<feFlood flood-opacity="0" result="BackgroundImageFix"/>
<feColorMatrix in="SourceAlpha" type="matrix" values="0 0 0 0 0 0 0 0 0 0 0 0 0 0 0 0 0 0 127 0" result="hardAlpha"/>
<feOffset dy="4"/>
<feGaussianBlur stdDeviation="2"/>
<feComposite in2="hardAlpha" operator="out"/>
<feColorMatrix type="matrix" values="0 0 0 0 0 0 0 0 0 0 0 0 0 0 0 0 0 0 0.25 0"/>
<feBlend mode="normal" in2="BackgroundImageFix" result="effect1_dropShadow_2_12"/>
<feBlend mode="normal" in="SourceGraphic" in2="effect1_dropShadow_2_12" result="shape"/>
</filter>
</defs>
</svg>
